<svg width="20" height="20" viewBox="0 0 20 20" fill="none" xmlns="http://www.w3.org/2000/svg">
<path d="M0 18.8647H2.25523V12.2066H0V18.8647ZM10.4985 19.9744L7.24339 19.2642L3.98831 18.554C3.80584 18.5122 3.64244 18.4111 3.52379 18.2665C3.40514 18.1218 3.33797 17.9419 3.33285 17.755V13.3163C3.3294 13.1251 3.39665 12.9394 3.52171 12.7947C3.64123 12.6424 3.81015 12.5364 3.99942 12.4951L9.30976 11.8404L14.6312 11.0969L14.7978 11.7072L14.9645 12.3175C14.9649 12.5255 14.9068 12.7294 14.7968 12.906C14.6868 13.0826 14.5293 13.2247 14.3424 13.3163L12.1205 13.8711L9.89856 14.4259L11.6983 15.1472L13.498 15.8685L16.031 15.1583L18.4973 14.4259C18.6043 14.3939 18.7167 14.3842 18.8276 14.3976C18.9385 14.411 19.0454 14.4471 19.1417 14.5036C19.2403 14.5589 19.3266 14.6337 19.3953 14.7233C19.4641 14.813 19.5139 14.9157 19.5416 15.0252L19.7527 15.8685L19.9749 16.723C20.0015 16.8279 20.007 16.9371 19.9912 17.0442C19.9754 17.1513 19.9386 17.2542 19.8828 17.347C19.8271 17.4398 19.7535 17.5207 19.6664 17.585C19.5792 17.6493 19.4802 17.6958 19.375 17.7217L15.3422 18.8314L11.3095 19.9411C11.1789 19.9757 11.0446 19.9943 10.9095 19.9966C10.7721 20.0051 10.6342 19.9977 10.4985 19.9744ZM16.6865 4.9936L12.7981 2.4968L8.90981 0V9.98719L12.7981 7.4904L16.6865 4.9936Z" fill="#FFFFF0"/>
</svg>
