<svg width="20" height="20" viewBox="0 0 20 20" fill="none" xmlns="http://www.w3.org/2000/svg">
<path fill-rule="evenodd" clip-rule="evenodd" d="M12.2327 0.600784L9.89192 3.72281C9.96203 3.77589 10.0291 3.83399 10.0932 3.89709L16.1029 9.90676C16.166 9.96986 16.2241 10.037 16.2772 10.1081L19.3992 7.76732C19.5714 7.63815 19.7138 7.4735 19.8168 7.28452C19.9198 7.09553 19.981 6.88662 19.9962 6.67193C20.0115 6.45723 19.9804 6.24177 19.9051 6.04013C19.8299 5.83849 19.7122 5.65537 19.56 5.50317L14.4968 0.440025C14.3446 0.287836 14.1615 0.170124 13.9599 0.094858C13.7582 0.0195921 13.5428 -0.0114706 13.3281 0.00377295C13.1134 0.0190165 12.9045 0.0802105 12.7155 0.183212C12.5265 0.286213 12.3618 0.428618 12.2327 0.600784ZM1.82544 7.10926L0 18.6719L4.43213 14.2397L3.96939 13.777C3.79327 13.6009 3.69432 13.362 3.69432 13.1129C3.69432 12.8638 3.79327 12.625 3.96939 12.4488C4.14551 12.2727 4.38438 12.1738 4.63346 12.1738C4.88253 12.1738 5.1214 12.2727 5.29752 12.4488L7.55115 14.7025C7.72727 14.8786 7.82622 15.1175 7.82622 15.3665C7.82622 15.6156 7.72727 15.8545 7.55115 16.0306C7.37503 16.2067 7.13616 16.3057 6.88708 16.3057C6.63801 16.3057 6.39914 16.2067 6.22301 16.0306L5.76027 15.5679L1.32814 20L12.8907 18.1746C13.216 18.1232 13.5154 17.9665 13.7428 17.7284C13.9703 17.4904 14.1133 17.1842 14.1498 16.8569L14.7748 11.2349L8.76511 5.22523L3.14306 5.85023C2.81582 5.88671 2.50962 6.02968 2.27156 6.25715C2.03349 6.48463 1.87675 6.78401 1.82544 7.10926Z" fill="#FFFFF0"/>
</svg>
