<svg width="20" height="20" viewBox="0 0 20 20" fill="none" xmlns="http://www.w3.org/2000/svg">
<path fill-rule="evenodd" clip-rule="evenodd" d="M0 5C0 3.67392 0.526784 2.40215 1.46447 1.46447C2.40215 0.526784 3.67392 0 5 0C6.32608 0 7.59785 0.526784 8.53553 1.46447C9.47322 2.40215 10 3.67392 10 5C10 6.32608 9.47322 7.59785 8.53553 8.53553C7.59785 9.47322 6.32608 10 5 10C3.67392 10 2.40215 9.47322 1.46447 8.53553C0.526784 7.59785 0 6.32608 0 5ZM15 2.85714C14.0528 2.85714 13.1444 3.23342 12.4746 3.90319C11.8048 4.57296 11.4286 5.48137 11.4286 6.42857C11.4286 7.37577 11.8048 8.28418 12.4746 8.95395C13.1444 9.62373 14.0528 10 15 10C15.9472 10 16.8556 9.62373 17.5254 8.95395C18.1952 8.28418 18.5714 7.37577 18.5714 6.42857C18.5714 5.48137 18.1952 4.57296 17.5254 3.90319C16.8556 3.23342 15.9472 2.85714 15 2.85714ZM2.73143 13.7271C2.73143 12.4557 3.76143 11.4243 5.03429 11.4243H13.7686C15.04 11.4243 16.0714 12.4557 16.0714 13.7271V17.6986C16.0714 18.97 15.04 20 13.7686 20H5.03429C3.76286 20 2.73143 18.9686 2.73143 17.6971V13.7271ZM19.8257 13.9271C19.8257 13.643 19.7128 13.3705 19.5119 13.1695C19.311 12.9686 19.0384 12.8557 18.7543 12.8557C18.4701 12.8557 18.1976 12.9686 17.9967 13.1695C17.7957 13.3705 17.6829 13.643 17.6829 13.9271V17.4986C17.6829 17.7827 17.7957 18.0553 17.9967 18.2562C18.1976 18.4571 18.4701 18.57 18.7543 18.57C19.0384 18.57 19.311 18.4571 19.5119 18.2562C19.7128 18.0553 19.8257 17.7827 19.8257 17.4986V13.9271Z" fill="#FFFFF0"/>
</svg>
