<svg width="22" height="20" viewBox="0 0 22 20" fill="none" xmlns="http://www.w3.org/2000/svg">
<path d="M3.66973 20C2.69646 20 1.76305 19.6144 1.07484 18.9281C0.386632 18.2417 0 17.3108 0 16.3401C0 15.3695 0.386632 14.4386 1.07484 13.7522C1.76305 13.0659 2.69646 12.6803 3.66973 12.6803C4.64301 12.6803 5.57642 13.0659 6.26463 13.7522C6.95284 14.4386 7.33947 15.3695 7.33947 16.3401C7.33947 17.3108 6.95284 18.2417 6.26463 18.9281C5.57642 19.6144 4.64301 20 3.66973 20ZM21.5267 14.5093L14.1872 1.83065C13.7006 0.98982 12.8989 0.376224 11.9587 0.124846C11.0184 -0.126531 10.0165 0.00489985 9.17342 0.490227C8.33032 0.975554 7.71507 1.77502 7.46301 2.71275C7.21095 3.65049 7.34274 4.64968 7.82938 5.4905L15.1698 18.1692C15.6619 18.9991 16.4624 19.6019 17.3976 19.8467C18.3327 20.0915 19.327 19.9584 20.1643 19.4764C21.0017 18.9943 21.6145 18.2023 21.8698 17.2723C22.125 16.3423 22.0011 15.3494 21.5267 14.5093ZM6.89359 3.45196L1.43487 12.8798C2.10113 12.4513 2.87698 12.2233 3.66973 12.2228C6.01836 12.2155 7.91286 14.1973 7.79268 16.5369L10.7441 11.4378L7.43213 5.71924C7.03549 5.03174 6.84835 4.24386 6.89359 3.45196Z" fill="#FFFFF0"/>
</svg>
