<svg width="30" height="20" viewBox="0 0 30 20" fill="none" xmlns="http://www.w3.org/2000/svg">
<path d="M8.64375 0.00125505C6.18375 0.00125505 4.04 1.60708 2.555 3.90666C0.88 6.4973 0 9.85322 0 13.0724C0 13.9581 0.0875 14.7899 0.2625 15.5476C0.349745 15.914 0.460391 16.2744 0.59375 16.6265C0.72272 16.9567 0.877798 17.2759 1.0575 17.5812C1.9275 19.0352 3.33 19.9987 5.54875 19.9987C7.42 19.9987 8.84 19.1569 10.505 16.9326C11.455 15.663 11.935 14.8927 13.8338 11.513L14.7787 9.83314L15.0112 9.42542C15.0875 9.55087 15.1625 9.67131 15.24 9.80178L17.93 14.3119C18.835 15.8299 20.0112 17.5185 21.0175 18.4694C22.325 19.7077 23.5075 20 24.8425 20C26.1863 20 27.1875 19.5546 27.9113 18.9424C28.3161 18.5969 28.6586 18.184 28.9237 17.7217C29.6012 16.5437 30 15.0533 30 13.0235C30 9.61109 29.1488 6.30285 27.395 3.67708C25.7925 1.27838 23.6988 0.00125505 21.5 0.00125505C20.1913 0.00125505 18.89 0.587128 17.6838 1.6422C16.8687 2.3573 16.1125 3.26057 15.4087 4.21403C14.5462 3.1163 13.74 2.27324 12.9613 1.63468C11.4838 0.422782 10.0675 0 8.64375 0V0.00125505ZM21.3438 2.57684C22.7775 2.57684 24.0787 3.52779 25.0837 5.08468C26.4987 7.27763 27.1425 10.3475 27.1425 13.1138C27.1425 15.0558 26.6825 16.752 24.8438 16.752C24.1187 16.752 23.56 16.4634 22.7638 15.4924C22.1438 14.7384 21.085 13.1364 19.2237 10.0251L18.4525 8.73541C17.9512 7.89388 17.4281 7.0656 16.8838 6.25141C16.9713 6.11467 17.06 5.97039 17.1475 5.84117C18.5475 3.74984 19.7938 2.57684 21.3438 2.57684ZM8.5925 3.27061C10.1737 3.27061 11.165 4.26295 11.9362 5.08468C12.32 5.49492 12.8575 6.17739 13.4788 7.06561L12.2037 9.03023C11.2575 10.4893 9.85125 12.8152 8.6575 14.4725C7.16875 16.5412 6.395 16.752 5.55 16.752C4.895 16.752 4.2525 16.4546 3.82125 15.7559C3.4925 15.2214 3.24125 14.3382 3.24125 13.1891C3.24125 10.4027 4.02875 7.49969 5.31625 5.55137C5.88375 4.6895 6.52125 4.0133 7.2325 3.62815C7.64857 3.39585 8.11639 3.27286 8.5925 3.27061Z" fill="#FFFFF0"/>
</svg>
