<svg width="18" height="19" viewBox="0 0 18 19" fill="none" xmlns="http://www.w3.org/2000/svg">
<path fill-rule="evenodd" clip-rule="evenodd" d="M15.3333 1.0341C15.3833 1.10077 15.425 1.17577 15.4417 1.2591V1.26743C16.025 3.86743 17.125 9.6841 17.125 13.0674C17.125 13.8674 17.025 14.8924 16.8417 16.1091C16.725 16.8091 16.2917 17.4008 15.6417 17.7341L13.875 18.6174C13.7833 18.6674 13.6917 18.6924 13.5833 18.6924H3.21667C2.11667 18.6924 1.21667 17.9258 1.075 16.8674C0.983333 16.2258 0.875 15.1841 0.875 13.9008C0.875 9.94244 1.875 6.05077 2.34167 4.4591C2.26372 4.4151 2.19338 4.35882 2.13333 4.29243C2.00833 4.15077 1.96667 3.9591 2 3.77577L2.02833 3.63993C2.14842 3.05297 2.27509 2.46738 2.40833 1.88327C2.55 1.22493 3.13333 0.766602 3.81667 0.766602H14.8417C14.9482 0.769192 15.0519 0.800894 15.1417 0.858268C15.2 0.891602 15.25 0.933268 15.2917 0.983268L15.3083 0.995768L15.325 1.00827C15.3333 1.0166 15.3333 1.0341 15.3333 1.0341ZM3.81667 2.01743C3.725 2.01743 3.64167 2.07577 3.625 2.1591V2.16744C3.55 2.50077 3.46667 2.87577 3.38333 3.27577H12.9167C13.4 3.27577 13.8333 2.91743 13.95 2.4341L13.98 2.2941C13.9911 2.23744 14.0033 2.18132 14.0167 2.12577L14.0417 2.01743H3.81667ZM2.30833 16.6924C2.36667 17.1258 2.75 17.4341 3.21667 17.4341H12.825C12.7 16.6924 12.5417 15.4508 12.5417 13.8924C12.5417 10.7258 13.0417 7.1341 13.55 4.41743C13.3417 4.47577 13.1333 4.51743 12.9167 4.51743H3.625C3.24167 5.8091 2.125 9.87577 2.125 13.8924C2.125 15.1091 2.225 16.0841 2.30833 16.6924ZM15.0833 16.6174C15.3667 16.4758 15.5583 16.2174 15.6083 15.9091C15.7833 14.7674 15.875 13.8008 15.875 13.0591C15.875 10.8591 15.3583 7.34243 14.8167 4.44244C14.3083 7.11743 13.7917 10.7258 13.7917 13.8924C13.7917 15.2924 13.925 16.4341 14.0417 17.1341L15.0833 16.6174ZM10.0583 8.26744C10.475 8.26744 10.8667 8.44243 11.1417 8.75077V8.74243C11.425 9.05077 11.5583 9.46743 11.5167 9.8841C11.3667 11.4174 11.2917 12.7258 11.2917 13.8841C11.2922 14.0169 11.295 14.1469 11.3 14.2741C11.305 14.3952 11.3078 14.5124 11.3083 14.6258C11.325 15.0341 11.175 15.4341 10.8917 15.7258C10.6083 16.0174 10.2333 16.1758 9.83333 16.1758H4.83333C4.05 16.1758 3.425 15.5758 3.39167 14.8008C3.375 14.5091 3.375 14.2091 3.375 13.8924C3.375 12.6258 3.45833 11.1674 3.625 9.5591C3.7 8.82577 4.31667 8.26744 5.06667 8.26744H10.0583ZM9.99167 14.8674C10.0167 14.8424 10.0583 14.7841 10.0583 14.6841H10.0667C10.05 14.4341 10.05 14.1674 10.05 13.8924C10.05 12.6924 10.125 11.3424 10.275 9.76743C10.2794 9.73446 10.2765 9.70092 10.2664 9.66922C10.2563 9.63752 10.2393 9.60845 10.2167 9.5841C10.1962 9.56278 10.1716 9.54587 10.1444 9.5344C10.1172 9.52294 10.0879 9.51717 10.0583 9.51744H5.06667C4.975 9.51744 4.88333 9.59243 4.875 9.6841C4.70833 11.2591 4.625 12.6674 4.625 13.8924C4.62556 14.0458 4.62833 14.1966 4.63333 14.3449C4.63833 14.4866 4.64111 14.6247 4.64167 14.7591C4.65 14.8674 4.74167 14.9341 4.83333 14.9341H9.83333C9.90833 14.9341 9.95833 14.9008 9.99167 14.8674Z" fill="#FFFFF0"/>
</svg>
