<svg width="17" height="20" viewBox="0 0 17 20" fill="none" xmlns="http://www.w3.org/2000/svg">
<path fill-rule="evenodd" clip-rule="evenodd" d="M2.79346 5.94328C2.53345 6.37557 2.41366 6.87504 2.44996 7.37551C2.48626 7.87598 2.67695 8.35384 2.99675 8.74578C3.31655 9.13772 3.75038 9.42525 4.24076 9.57026C4.73114 9.71528 5.25493 9.71094 5.74274 9.55783C7.04526 8.65776 8.36092 7.30052 8.92977 5.4661C8.98691 5.28603 9.11443 5.1354 9.28452 5.04705C9.4546 4.95871 9.65345 4.93982 9.8377 4.99451C10.0219 5.04919 10.1766 5.17302 10.268 5.33898C10.3595 5.50494 10.3802 5.69957 10.3256 5.88042C9.66198 8.02343 8.18442 9.57497 6.76229 10.5993C6.56136 10.7803 6.3531 10.9533 6.13802 11.1179C5.43497 11.658 4.50731 12.3952 3.81156 13.1809C3.72019 13.2845 3.6611 13.4115 3.64132 13.547C3.62154 13.6824 3.64189 13.8206 3.69997 13.9451C3.75805 14.0695 3.8514 14.175 3.96893 14.249C4.08645 14.323 4.2232 14.3624 4.36291 14.3625H13.8657C14.0383 14.3624 14.2053 14.3023 14.337 14.193C14.4686 14.0836 14.5564 13.9321 14.5847 13.7653C15.3097 9.47496 15.1288 6.72619 14.4797 4.84463C13.8175 2.92307 12.6915 1.98443 11.7726 1.28438C10.8653 0.592899 9.38631 0.231444 8.06482 0.0842908C6.7375 -0.0642913 5.32704 -0.0242884 4.49126 0.267161C4.39655 0.300047 4.30979 0.35175 4.23644 0.419027C4.16309 0.486304 4.10473 0.567703 4.06501 0.658117C4.02529 0.748531 4.00508 0.846009 4.00564 0.944436C4.0062 1.04286 4.02752 1.14011 4.06827 1.23009L4.73922 2.70876L2.79346 5.94328ZM0.7981 17.2769C0.94477 16.8659 1.21825 16.5097 1.58069 16.2576C1.94314 16.0054 2.37663 15.8699 2.82117 15.8697H14.2697C15.1886 15.8697 16.0025 16.4426 16.2971 17.2927L16.955 19.0385C16.9956 19.1465 17.009 19.2625 16.9941 19.3766C16.9791 19.4908 16.9362 19.5997 16.869 19.6941C16.8019 19.7885 16.7124 19.8656 16.6083 19.9189C16.5041 19.9721 16.3884 20 16.2709 20H0.728088C0.607901 19.9998 0.489627 19.9705 0.383784 19.9147C0.277941 19.859 0.187811 19.7784 0.12141 19.6803C0.0550087 19.5822 0.0143951 19.4695 0.00318147 19.3523C-0.00803219 19.2351 0.0105016 19.117 0.0571343 19.0085L0.7981 17.2769Z" fill="#FFFFF0"/>
</svg>
